HIERARCHY
ROOT Hips
{
	OFFSET 0.00000 0.00000 0.00000
	CHANNELS 6 Xposition Yposition Zposition Zrotation Yrotation Xrotation 
	JOINT LHipJoint
	{
		OFFSET 0 0 0
		CHANNELS 3 Zrotation Yrotation Xrotation
		JOINT LeftUpLeg
		{
			OFFSET 1.46561 -1.72757 0.83774
			CHANNELS 3 Zrotation Yrotation Xrotation
			JOINT LeftLeg
			{
				OFFSET 2.48915 -6.83890 0.00000
				CHANNELS 3 Zrotation Yrotation Xrotation
				JOINT LeftFoot
				{
					OFFSET 2.60555 -7.15868 0.00000
					CHANNELS 3 Zrotation Yrotation Xrotation
					JOINT LeftToeBase
					{
						OFFSET 0.19248 -0.52884 2.26738
						CHANNELS 3 Zrotation Yrotation Xrotation
						End Site
						{
							OFFSET 0.00000 -0.00000 1.17015
						}
					}
				}
			}
		}
	}
	JOINT RHipJoint
	{
		OFFSET 0 0 0
		CHANNELS 3 Zrotation Yrotation Xrotation
		JOINT RightUpLeg
		{
			OFFSET -1.46918 -1.72757 0.83774
			CHANNELS 3 Zrotation Yrotation Xrotation
			JOINT RightLeg
			{
				OFFSET -2.49034 -6.84216 0.00000
				CHANNELS 3 Zrotation Yrotation Xrotation
				JOINT RightFoot
				{
					OFFSET -2.65971 -7.30750 0.00000
					CHANNELS 3 Zrotation Yrotation Xrotation
					JOINT RightToeBase
					{
						OFFSET -0.19227 -0.52827 2.30785
						CHANNELS 3 Zrotation Yrotation Xrotation
						End Site
						{
							OFFSET -0.00000 -0.00000 1.18972
						}
					}
				}
			}
		}
	}
	JOINT LowerBack
	{
		OFFSET 0 0 0
		CHANNELS 3 Zrotation Yrotation Xrotation
		JOINT Spine
		{
			OFFSET 0.02432 2.19909 -0.28000
			CHANNELS 3 Zrotation Yrotation Xrotation
			JOINT Spine1
			{
				OFFSET 0.03714 2.21816 -0.15261
				CHANNELS 3 Zrotation Yrotation Xrotation
				JOINT Neck
				{
					OFFSET 0 0 0
					CHANNELS 3 Zrotation Yrotation Xrotation
					JOINT Neck1
					{
						OFFSET -0.01896 1.56165 0.21681
						CHANNELS 3 Zrotation Yrotation Xrotation
						JOINT Head
						{
							OFFSET 0.02744 1.56009 0.06764
							CHANNELS 3 Zrotation Yrotation Xrotation
							End Site
							{
								OFFSET 0.01212 1.60574 0.00298
							}
						}
					}
				}
				JOINT LeftShoulder
				{
					OFFSET 0 0 0
					CHANNELS 3 Zrotation Yrotation Xrotation
					JOINT LeftArm
					{
						OFFSET 3.05595 1.48048 -0.60794
						CHANNELS 3 Zrotation Yrotation Xrotation
						JOINT LeftForeArm
						{
							OFFSET 5.20607 -0.00000 -0.00000
							CHANNELS 3 Zrotation Yrotation Xrotation
							JOINT LeftHand
							{
								OFFSET 3.39961 -0.00000 0.00000
								CHANNELS 3 Zrotation Yrotation Xrotation
								JOINT LeftFingerBase
								{
									OFFSET 0 0 0
									CHANNELS 3 Zrotation Yrotation Xrotation
									JOINT LeftHandIndex1
									{
										OFFSET 0.51969 -0.00000 0.00000
										CHANNELS 3 Zrotation Yrotation Xrotation
										End Site
										{
											OFFSET 0.41899 -0.00000 0.00000
										}
									}
								}
								JOINT LThumb
								{
									OFFSET 0 0 0
									CHANNELS 3 Zrotation Yrotation Xrotation
									End Site
									{
										OFFSET 0.42539 -0.00000 0.42539
									}
								}
							}
						}
					}
				}
				JOINT RightShoulder
				{
					OFFSET 0 0 0
					CHANNELS 3 Zrotation Yrotation Xrotation
					JOINT RightArm
					{
						OFFSET -2.99052 1.57608 -0.69102
						CHANNELS 3 Zrotation Yrotation Xrotation
						JOINT RightForeArm
						{
							OFFSET -5.32214 -0.00000 0.00000
							CHANNELS 3 Zrotation Yrotation Xrotation
							JOINT RightHand
							{
								OFFSET -3.51208 -0.00000 0.00000
								CHANNELS 3 Zrotation Yrotation Xrotation
								JOINT RightFingerBase
								{
									OFFSET 0 0 0
									CHANNELS 3 Zrotation Yrotation Xrotation
									JOINT RightHandIndex1
									{
										OFFSET -0.58668 -0.00000 0.00000
										CHANNELS 3 Zrotation Yrotation Xrotation
										End Site
										{
											OFFSET -0.47300 -0.00000 0.00000
										}
									}
								}
								JOINT RThumb
								{
									OFFSET 0 0 0
									CHANNELS 3 Zrotation Yrotation Xrotation
									End Site
									{
										OFFSET -0.48022 -0.00000 0.48022
									}
								}
							}
						}
					}
				}
			}
		}
	}
}
MOTION
Frames: 12
Frame Time: .0083333
0.4071 17.3479 -3.1906 -0.8860 0.2622 7.1998 0.0000 0.0000 0.0000 -16.5958 -1.9773 -25.1917 3.0816 10.8260 31.6952 0.4439 1.8885 -13.4146 0.0013 0.2325 0.6388 0.0000 0.0000 0.0000 16.3823 7.4441 -24.2605 -3.4692 -11.4184 33.7044 -0.6615 6.1411 -14.5104 -0.4164 -4.1421 11.4768 -0.5148 0.9153 3.3512 0.9828 1.1933 4.4568 1.2865 0.5642 2.6695 -2.3194 -1.1150 -11.9229 2.5710 -1.8801 34.2630 1.1560 -0.7656 13.6058 -0.0000 -0.0000 0.0000 -89.1320 -3.9399 28.8813 8.4238 -14.2375 -1.0539 -0.0000 0.0000 -7.6976 28.7074 -5.7192 -3.1238 -7.1250 0.0000 -0.0000 1.4787 23.4660 -0.7678 -0.0000 -0.0000 0.0000 86.4559 11.7643 2.5254 -10.7703 17.9354 -1.7045 0.0000 0.0000 39.9382 -23.1118 -24.2644 9.9476 7.1250 -0.0000 -0.0000 6.8337 -55.9592 -1.8434
0.4132 17.3625 -3.1721 -0.9065 0.2193 7.2961 0.0000 0.0000 0.0000 -16.6213 -1.9135 -25.0664 3.0208 10.7287 31.3703 0.4425 1.8743 -13.3885 0.0005 0.1408 0.3869 0.0000 0.0000 0.0000 16.4039 7.4479 -24.1091 -3.4031 -11.3207 33.3692 -0.6529 6.1009 -14.4157 -0.4242 -4.1804 11.5846 -0.5115 0.9294 3.2907 0.9898 1.2121 4.4274 1.2924 0.5736 2.6724 -2.3329 -1.1174 -11.9087 2.5861 -1.8840 34.1932 1.1630 -0.7673 13.5723 -0.0000 0.0000 0.0000 -89.1247 -4.0185 29.2209 8.6150 -14.5448 -1.1014 -0.0000 0.0000 -8.4258 28.6540 -5.7183 -3.1165 -7.1250 0.0000 -0.0000 1.4393 23.4702 -0.7472 -0.0000 0.0000 0.0000 86.4161 11.8233 3.0274 -10.9355 18.1893 -1.7557 0.0000 0.0000 39.1532 -23.1674 -24.2526 9.9693 7.1250 -0.0000 -0.0000 6.7699 -55.9586 -1.8260
0.4193 17.3771 -3.1532 -0.9324 0.1755 7.3911 0.0000 0.0000 0.0000 -16.6408 -1.8356 -24.9410 2.9606 10.6310 31.0454 0.4421 1.8458 -13.3678 0.0001 0.0555 0.1524 0.0000 0.0000 0.0000 16.4329 7.4362 -23.9585 -3.3367 -11.2211 33.0293 -0.6436 6.0771 -14.3130 -0.4318 -4.2172 11.6885 -0.5009 0.9416 3.2251 0.9974 1.2285 4.3964 1.2948 0.5821 2.6767 -2.3497 -1.1198 -11.8982 2.6047 -1.8884 34.1239 1.1719 -0.7691 13.5400 0.0000 -0.0000 0.0000 -89.1200 -4.0849 29.5558 8.8051 -14.8493 -1.1497 -0.0000 0.0000 -9.1236 28.5322 -5.6335 -3.0550 -7.1250 0.0000 -0.0000 1.3537 23.5739 -0.6995 0.0000 -0.0000 0.0000 86.3832 11.8769 3.5338 -11.0950 18.4337 -1.8058 0.0000 0.0000 38.4274 -23.2343 -24.2255 9.9906 7.1250 -0.0000 -0.0000 6.6882 -55.9444 -1.8015
0.4251 17.3916 -3.1344 -0.9643 0.1325 7.4833 0.0000 0.0000 0.0000 -16.6534 -1.7432 -24.8171 2.9012 10.5333 30.7217 0.4422 1.8035 -13.3475 0.0000 -0.0223 -0.0613 0.0000 0.0000 0.0000 16.4698 7.4114 -23.8069 -3.2702 -11.1201 32.6860 -0.6337 6.0685 -14.2034 -0.4404 -4.2581 11.8040 -0.4808 0.9513 3.1552 1.0049 1.2416 4.3658 1.2921 0.5891 2.6842 -2.3589 -1.1205 -11.8994 2.6139 -1.8892 34.0645 1.1763 -0.7696 13.5143 0.0000 0.0000 0.0000 -89.1146 -4.1427 29.8886 8.9939 -15.1507 -1.1985 -0.0000 0.0000 -9.7881 28.3142 -5.4356 -2.9216 -7.1250 0.0000 -0.0000 1.2021 23.8110 -0.6146 0.0000 0.0000 0.0000 86.3598 11.9309 4.0432 -11.2476 18.6667 -1.8544 0.0000 0.0000 37.7590 -23.3141 -24.1971 10.0174 7.1250 -0.0000 -0.0000 6.5924 -55.9315 -1.7735
0.4309 17.4059 -3.1152 -0.9981 0.0881 7.5710 0.0000 0.0000 0.0000 -16.6647 -1.6360 -24.6914 2.8427 10.4360 30.4005 0.4425 1.7517 -13.3255 0.0002 -0.0897 -0.2465 0.0000 0.0000 0.0000 16.5099 7.3729 -23.6535 -3.2041 -11.0183 32.3415 -0.6232 6.0764 -14.0883 -0.4486 -4.2969 11.9135 -0.4542 0.9586 3.0767 1.0105 1.2517 4.3375 1.2839 0.5949 2.6990 -2.3605 -1.1194 -11.9080 2.6147 -1.8866 34.0156 1.1766 -0.7687 13.4947 -0.0000 -0.0000 0.0000 -89.1063 -4.1916 30.2290 9.1773 -15.4425 -1.2469 -0.0000 0.0000 -10.4033 28.1059 -5.2481 -2.7968 -7.1250 0.0000 -0.0000 1.0563 24.0350 -0.5346 -0.0000 -0.0000 0.0000 86.3477 11.9902 4.5316 -11.3871 18.8792 -1.8993 0.0000 0.0000 37.1726 -23.4034 -24.1657 10.0475 7.1250 -0.0000 -0.0000 6.4854 -55.9175 -1.7423
0.4365 17.4198 -3.0959 -1.0353 0.0402 7.6547 0.0000 0.0000 0.0000 -16.6724 -1.5154 -24.5669 2.7855 10.3394 30.0831 0.4424 1.6944 -13.2954 0.0005 -0.1445 -0.3969 0.0000 0.0000 0.0000 16.5549 7.3293 -23.4985 -3.1387 -10.9163 31.9982 -0.6124 6.0932 -13.9688 -0.4567 -4.3352 12.0216 -0.4227 0.9639 2.9958 1.0149 1.2592 4.3073 1.2719 0.5995 2.7134 -2.3557 -1.1141 -11.9202 2.6104 -1.8780 33.9818 1.1749 -0.7650 13.4821 0.0000 -0.0000 0.0000 -89.0922 -4.2334 30.5875 9.3595 -15.7315 -1.2959 -0.0000 0.0000 -10.9882 27.9140 -4.9962 -2.6417 -7.1250 0.0000 -0.0000 0.9246 24.3298 -0.4616 0.0000 -0.0000 0.0000 86.3472 12.0607 4.9785 -11.5031 19.0553 -1.9370 0.0000 0.0000 36.6936 -23.4858 -24.1376 10.0756 7.1250 -0.0000 -0.0000 6.3869 -55.9054 -1.7138
0.4419 17.4334 -3.0767 -1.0741 -0.0107 7.7333 0.0000 0.0000 0.0000 -16.6781 -1.3849 -24.4424 2.7296 10.2439 29.7703 0.4417 1.6357 -13.2551 0.0008 -0.1821 -0.5004 0.0000 0.0000 0.0000 16.6027 7.2826 -23.3426 -3.0747 -10.8151 31.6587 -0.6014 6.1154 -13.8474 -0.4644 -4.3712 12.1234 -0.3890 0.9668 2.9134 1.0186 1.2634 4.2766 1.2579 0.6025 2.7284 -2.3453 -1.1035 -11.9338 2.5977 -1.8607 33.9630 1.1702 -0.7579 13.4760 0.0000 0.0000 0.0000 -89.0737 -4.2698 30.9604 9.5361 -16.0106 -1.3442 -0.0000 0.0000 -11.5176 27.7150 -4.6142 -2.4200 -7.1250 0.0000 -0.0000 0.7916 24.7707 -0.3871 0.0000 0.0000 0.0000 86.3579 12.1413 5.3938 -11.6014 19.2041 -1.9692 0.0000 0.0000 36.3054 -23.5507 -24.1255 10.1015 7.1250 -0.0000 -0.0000 6.3133 -55.9064 -1.6941
0.4469 17.4465 -3.0576 -1.1078 -0.0613 7.8070 0.0000 0.0000 0.0000 -16.6891 -1.2512 -24.3171 2.6753 10.1500 29.4637 0.4399 1.5803 -13.2034 0.0010 -0.2060 -0.5660 0.0000 0.0000 0.0000 16.6454 7.2326 -23.1864 -3.0126 -10.7154 31.3258 -0.5905 6.1416 -13.7268 -0.4730 -4.4111 12.2361 -0.3617 0.9648 2.8308 1.0211 1.2610 4.2445 1.2464 0.6021 2.7421 -2.3350 -1.0873 -11.9420 2.5808 -1.8341 33.9539 1.1655 -0.7475 13.4726 -0.0000 -0.0000 0.0000 -89.0554 -4.3060 31.3246 9.7020 -16.2722 -1.3903 -0.0000 0.0000 -11.9767 27.5893 -4.2788 -2.2327 -7.1250 0.0000 -0.0000 0.7098 25.1544 -0.3408 -0.0000 -0.0000 0.0000 86.3780 12.2350 5.7628 -11.6776 19.3194 -1.9943 0.0000 0.0000 36.0285 -23.5976 -24.1058 10.1160 7.1250 -0.0000 -0.0000 6.2560 -55.8956 -1.6770
0.4517 17.4591 -3.0388 -1.1368 -0.1106 7.8751 0.0000 0.0000 0.0000 -16.7042 -1.1193 -24.1894 2.6227 10.0576 29.1634 0.4372 1.5307 -13.1397 0.0011 -0.2097 -0.5761 0.0000 0.0000 0.0000 16.6835 7.1819 -23.0302 -2.9527 -10.6181 31.0024 -0.5802 6.1659 -13.6107 -0.4813 -4.4490 12.3433 -0.3412 0.9577 2.7519 1.0236 1.2517 4.2116 1.2386 0.5980 2.7529 -2.3294 -1.0674 -11.9493 2.5624 -1.8007 33.9560 1.1620 -0.7349 13.4737 0.0000 0.0000 0.0000 -89.0390 -4.3527 31.6689 9.8370 -16.4842 -1.4283 -0.0000 0.0000 -12.3206 27.5586 -4.1076 -2.1408 -7.1250 0.0000 -0.0000 0.6928 25.3485 -0.3295 0.0000 0.0000 0.0000 86.4046 12.3340 6.1147 -11.7406 19.4145 -2.0152 0.0000 0.0000 35.8187 -23.6190 -24.0877 10.1191 7.1250 -0.0000 -0.0000 6.2262 -55.8812 -1.6668
0.4562 17.4713 -3.0204 -1.1613 -0.1533 7.9356 0.0000 0.0000 0.0000 -16.7220 -0.9964 -24.0552 2.5715 9.9667 28.8690 0.4335 1.4878 -13.0665 0.0009 -0.1962 -0.5392 0.0000 0.0000 0.0000 16.7179 7.1283 -22.8731 -2.8955 -10.5240 30.6908 -0.5705 6.1861 -13.5021 -0.4901 -4.4889 12.4563 -0.3276 0.9440 2.6786 1.0276 1.2336 4.1796 1.2360 0.5894 2.7615 -2.3291 -1.0437 -11.9534 2.5408 -1.7595 33.9660 1.1595 -0.7200 13.4774 -0.0000 -0.0000 0.0000 -89.0291 -4.4103 31.9833 9.9381 -16.6427 -1.4572 -0.0000 0.0000 -12.5541 27.5912 -4.1499 -2.1658 -7.1250 0.0000 -0.0000 0.7158 25.2995 -0.3413 -0.0000 -0.0000 0.0000 86.4364 12.4377 6.4510 -11.7936 19.4943 -2.0329 0.0000 0.0000 35.6543 -23.6106 -24.0712 10.1087 7.1250 -0.0000 -0.0000 6.2289 -55.8622 -1.6646
0.4604 17.4830 -3.0021 -1.1793 -0.1927 7.9861 0.0000 0.0000 0.0000 -16.7453 -0.8825 -23.9099 2.5217 9.8773 28.5804 0.4290 1.4571 -12.9879 0.0007 -0.1698 -0.4665 0.0000 0.0000 0.0000 16.7458 7.0730 -22.7113 -2.8412 -10.4335 30.3923 -0.5617 6.2049 -13.4024 -0.4982 -4.5251 12.5590 -0.3223 0.9269 2.6121 1.0316 1.2109 4.1489 1.2381 0.5782 2.7676 -2.3352 -1.0196 -11.9463 2.5204 -1.7166 33.9742 1.1589 -0.7052 13.4778 0.0000 -0.0000 0.0000 -89.0261 -4.4796 32.2566 10.0001 -16.7397 -1.4750 -0.0000 0.0000 -12.6462 27.6570 -4.3117 -2.2562 -7.1250 0.0000 -0.0000 0.7596 25.1144 -0.3654 0.0000 -0.0000 0.0000 86.4739 12.5410 6.7652 -11.8379 19.5610 -2.0477 0.0000 0.0000 35.5211 -23.5802 -24.0460 10.0847 7.1250 -0.0000 -0.0000 6.2515 -55.8296 -1.6658
0.4643 17.4942 -2.9842 -1.1892 -0.2271 8.0279 0.0000 0.0000 0.0000 -16.7750 -0.7817 -23.7543 2.4735 9.7896 28.2979 0.4239 1.4392 -12.9059 0.0004 -0.1339 -0.3678 0.0000 0.0000 0.0000 16.7659 7.0177 -22.5465 -2.7899 -10.3469 30.1077 -0.5539 6.2169 -13.3130 -0.5044 -4.5528 12.6373 -0.3276 0.9068 2.5522 1.0354 1.1840 4.1195 1.2457 0.5646 2.7712 -2.3357 -0.9942 -11.9420 2.4890 -1.6696 33.9896 1.1535 -0.6893 13.4817 0.0000 0.0000 0.0000 -89.0285 -4.5602 32.4904 10.0309 -16.7878 -1.4839 -0.0000 0.0000 -12.6381 27.6638 -4.4337 -2.3206 -7.1250 0.0000 -0.0000 0.7601 24.9765 -0.3681 0.0000 0.0000 0.0000 86.5176 12.6356 7.0706 -11.8823 19.6279 -2.0626 0.0000 0.0000 35.3847 -23.5217 -24.0284 10.0504 7.1250 -0.0000 -0.0000 6.3068 -55.7990 -1.6759
